PathFileType	4	(X/Y/Z)	9_2_69_p1_0-242.trc
DataRate	CameraRate	NumFrames	NumMarkers	Units	OrigDataRate	OrigDataStartFrame	OrigNumFrames
59.0	59.0	6	27	m	59.0	121	243
Frame#	Time	RHip			RKnee			RAnkle			RBigToe			RSmallToe			RHeel			LHip			LKnee			LAnkle			LBigToe			LSmallToe			LHeel			Neck			Head			Nose			RShoulder			RElbow			RWrist			RThumb			RIndex			RPinky			LShoulder			LElbow			LWrist			LThumb			LIndex			LPinky			
		X1	Y1	Z1	X2	Y2	Z2	X3	Y3	Z3	X4	Y4	Z4	X5	Y5	Z5	X6	Y6	Z6	X7	Y7	Z7	X8	Y8	Z8	X9	Y9	Z9	X10	Y10	Z10	X11	Y11	Z11	X12	Y12	Z12	X13	Y13	Z13	X14	Y14	Z14	X15	Y15	Z15	X16	Y16	Z16	X17	Y17	Z17	X18	Y18	Z18	X19	Y19	Z19	X20	Y20	Z20	X21	Y21	Z21	X22	Y22	Z22	X23	Y23	Z23	X24	Y24	Z24	X25	Y25	Z25	X26	Y26	Z26	X27	Y27	Z27	
121	2.0508474576271185	0.3233226759788207	0.410266871381131	1.090458771471054	0.28719830912461397	0.4929250279987314	1.4988482015808837	0.3180427722287921	0.6221312460753934	1.9143642001586043	0.28403516872413115	0.42333785068612206	1.8892375930090404	0.3320231154062132	0.4235168905551421	1.8801006430429095	0.3025970219168821	0.716371464370386	1.994414063373343	0.09916308142531435	0.47928557115417453	1.125436592046237	0.1162641217182224	0.5291241294843427	1.516206239096501	0.09105746347698343	0.5803980081161152	1.9063543541052328	0.10715375765177208	0.34416726566035927	1.8615685468732803	0.056261368752429104	0.4225244615358113	1.8778208815813782	0.10810227706689261	0.6128212100181187	1.9588551807866115	0.16177134568936397	0.4174775032939837	0.6038569983062704	0.13528081613420734	0.36039127112737995	0.3631842759856025	0.1293876290666472	0.33995648874223755	0.5003669874666953	0.32750647360404755	0.36337057819386487	0.656353857917892	0.4223098031228192	0.1673687969366628	0.7697273585552096	0.21854267966611945	0.09461437723641689	0.7534156075876028	0.11137844889501713	0.1194892027889556	0.7323073166970406	0.10946059111630473	0.08221091417040546	0.7499125529402145	0.14439590524398402	0.09603346179722932	0.7928251565102961	0.04998451362345249	0.478400558150251	0.7049153910803297	-0.027289344436507677	0.48752190090595837	0.9359207648876627	-0.0780430692913985	0.33719120880486914	0.8469572075022691	-0.08058535619567668	0.3059152020435441	0.7749413354674024	-0.09574103016142224	0.28014043993823134	0.7788311149598974	-0.08198024048773725	0.28405609421836686	0.8308088918182375
122	2.0677966101694913	0.3174090790773961	0.38504458569527056	1.0957201956602673	0.2883182850803649	0.49330030975842387	1.5069582151001666	0.31797445289174936	0.6222530077647427	1.9144121655587738	0.2890686047940811	0.4071652818886574	1.8841750767908554	0.3319960305556128	0.4235203338059898	1.8801231615923022	0.3026782607962283	0.716430287687284	1.9943337901534286	0.09271925367591857	0.4790784519542657	1.1313551566425917	0.11447305637697014	0.5135554116432717	1.5099716504665066	0.09098459473062734	0.5803310734516259	1.9064279249072327	0.10724068548288142	0.3442026638635229	1.8614374435735974	0.06194543643972534	0.4088957256808332	1.8699312907725343	0.10249822511359241	0.6295792275950206	1.9678001507477605	0.1648136511927872	0.42921502304794623	0.6046956104996358	0.13995430501228068	0.3494289112780265	0.36619692751310107	0.1331896657576265	0.34225475001386185	0.5004655754992546	0.3275472451889124	0.36331148909986616	0.6602924414457053	0.4241793006210293	0.19435708626077267	0.7995893482691782	0.2288857762369168	0.10584633401425156	0.781450849763761	0.12214406542710075	0.13508067166957435	0.7687629277163549	0.11537991331122809	0.09863654915819046	0.7703417761078857	0.1532383316345382	0.09977915059465779	0.8028065628287306	0.05552747641798128	0.4621974573683884	0.6949406488709142	-0.03972761489939641	0.48287742827483254	0.9386080581315156	-0.078519063036008	0.33588703334202313	0.8273226942091353	-0.07425707570225804	0.30571836113573875	0.7416678867146278	-0.08830142774283017	0.29163258022545924	0.7402457938081345	-0.1019051703770269	0.2634956099572337	0.7844956241984253
123	2.0847457627118646	0.3173887773751076	0.38489750723243693	1.0958339947266773	0.283343595669285	0.48864923586582565	1.5014273902558395	0.31793692958398806	0.622253735782079	1.9143679925214738	0.2840543054612687	0.42369857204882233	1.8894762992004526	0.3320478898598277	0.42386073349310793	1.8802127791887433	0.30257346222417286	0.7166894562127303	1.9949753706980093	0.09303093009410629	0.47767083451936254	1.1346062688626433	0.11337868289437546	0.5142791146910208	1.514398232736206	0.09085090341856691	0.580522265254575	1.9065152042921414	0.10727226852715792	0.3444197613715178	1.8614960589624985	0.05633808383516558	0.42275231267325775	1.877589561408232	0.10249129637670745	0.629356099029509	1.966878545817862	0.16468723247522815	0.42940169976612735	0.604635595635641	0.14023331599980518	0.34934872798870076	0.36606794494509914	0.1338774892743288	0.34335551061950415	0.5009437802664221	0.327520713086884	0.36379977783546574	0.660445519088994	0.4316478274756939	0.2084450594306445	0.8130206195022152	0.24920373937106358	0.16876739695142864	0.8037175704241264	0.13529742767668895	0.18909691620328678	0.800664834109144	0.13354186731372916	0.16526352908414632	0.8071591530874994	0.17211970235148277	0.15863691877549335	0.8509925894536549	0.0531816664734807	0.4486969612242252	0.6896288372718037	-0.044965682242369125	0.47885190667662303	0.929537231174672	-0.08337390614780912	0.33398728484854084	0.788631388256628	-0.07657075209268546	0.3302167986396845	0.7196376122126199	-0.08775058576095149	0.2988526893845942	0.6934233589032945	-0.09302133167554243	0.28064862490280407	0.7397808784064706
124	2.1016949152542375	0.30881453833925754	0.38667179290314546	1.1086654108794727	0.283026029618162	0.4798894203001076	1.5027503488726113	0.31787226283798664	0.6222939191980271	1.91447212991372	0.28331882151730403	0.42266208901586994	1.8982144401912562	0.33623335888874845	0.4258282143039824	1.8814394344490017	0.3024817124052574	0.7166744246668263	1.9950145718007568	0.08603629549102484	0.4923768880373901	1.1465501046850606	0.1133246398270105	0.514187216323872	1.5143097007717432	0.0907794873195582	0.5807977133168196	1.9066539564016374	0.10719347701945543	0.344545810092591	1.8616472755850209	0.05626179666203072	0.42291414895297996	1.8778108432140623	0.1024278632997121	0.6298654339990921	1.9674171391344384	0.16448815700952854	0.4288459910587453	0.6048563876314544	0.14296681746885612	0.3603622394268305	0.3661844937909044	0.13755665203407613	0.3445893386313084	0.49730489095931446	0.33243657688128014	0.35249918690670334	0.6656968554462578	0.4316868424143077	0.23439848931695204	0.8292768370314382	0.25338748793373433	0.18147491157851106	0.8269007494812456	0.1511347195278257	0.1957794379504938	0.8154073703710941	0.1425057488797222	0.18300453804938585	0.8309360126071803	0.17573723405602917	0.17731656016208477	0.8776024823855882	0.053294087991670444	0.45024662195926696	0.6941323376168739	-0.06148061346374099	0.5072717426635671	0.9437261947202322	-0.08907904063620165	0.34110756060784964	0.7635953466339181	-0.08241467058411578	0.32075536630243395	0.6783623476990629	-0.09391125124903794	0.28636480855627344	0.6668568013656845	-0.095924221431835	0.2670498847316548	0.7141603150558218
125	2.1186440677966103	0.3047452569026359	0.399256894833469	1.1088963885125678	0.2797875074507875	0.47880315727584755	1.5063357218791469	0.3133251768363334	0.6205121631983138	1.9137595903769868	0.2878345095032938	0.4377199142786399	1.9097705359442458	0.3352199850020686	0.4267588638659376	1.8866742211553342	0.3024986298766373	0.7165811147324904	1.9944026543495375	0.08713540475686993	0.48991666216139235	1.1461963884308384	0.11172026527724764	0.5122881021086476	1.518167596573287	0.0915166035370409	0.582777244276734	1.9126173973910905	0.10786524805124396	0.34743061222995053	1.8677245799997173	0.056226926845252476	0.4234944678801819	1.8778695677288766	0.10437916065424198	0.6306761479292666	1.9652674009853608	0.17129080080001738	0.4441974619709629	0.6066114158239851	0.14715881915168513	0.3604872008465122	0.35916310524410827	0.14027933162485365	0.35588640040067676	0.49773437380766583	0.33595873091734124	0.3625588340418221	0.6706678249843425	0.43531075892314963	0.24491925802866785	0.8385425743430134	0.26303947536873973	0.19438295169727368	0.8617621866816148	0.15519596432143345	0.1989410804605802	0.8268296977381837	0.1476310043900493	0.18378281842036287	0.8587487741249329	0.1756873208565065	0.18026098503008356	0.8968957739912956	0.046022686953836114	0.45153457698226507	0.693984600217615	-0.068841415225094	0.4517879380805671	0.9010078679053115	-0.08813313677391002	0.33973709738579094	0.7437645164079889	-0.07720893097732959	0.3227473236291127	0.6609875212354682	-0.08594491814016468	0.30009505746250137	0.6407139399273422	-0.09496946368743762	0.2611020780024908	0.6659983937918375
126	2.135593220338983	0.2973564137522947	0.4024174400198872	1.1220745405481822	0.2792853643384853	0.4754460315424517	1.5052203812877005	0.31331012077431725	0.6203667231869516	1.9136752048226675	0.28803447149025013	0.4380968978743912	1.9100326000205998	0.33900742531377426	0.43975294248557545	1.8934093376844447	0.3025095629940944	0.7165943904425934	1.99479743302602	0.08738537731967459	0.4885199513183653	1.1501071757363182	0.11017212425288823	0.5284816458511254	1.5250263845270082	0.0927206493593358	0.5817105394245521	1.9076951230215462	0.10784790253868216	0.3474616837749305	1.8677051541324035	0.05613918293794988	0.42340089906056205	1.877963859989455	0.10435070073883812	0.6307442671134125	1.965055623914252	0.1765883897962616	0.43164751682514646	0.6048619622558125	0.1542709936557952	0.35961023946815523	0.3585965339507592	0.14880955574632335	0.34573221388843084	0.49702866050627853	0.3405807905295885	0.3667387017670041	0.6782075275116178	0.43579483876744024	0.2815969758667646	0.8495648012477699	0.2631126079825906	0.19314099254992786	0.8806001208008494	0.15400587305885788	0.19435284916729292	0.8582763289623769	0.1471020400955654	0.18376162673595894	0.8869393915226639	0.18780042499899316	0.20143213988460396	0.9388832304991217	0.05366035225765489	0.44997785947016633	0.6895685405434188	-0.0942969417248249	0.432727360648661	0.8852208357398605	-0.08539373310937923	0.31498134684889967	0.7171721738377681	-0.07200193526756088	0.3132831506880024	0.6413155231794915	-0.0812215166160205	0.3147639609049465	0.6221182699133029	-0.09203904675134023	0.2650076654428991	0.6403911027486497
